PathFileType	4	(X/Y/Z)	/Users/itak/Documents/Research/Walk-IL/dataset/trc/00370_00011.trc
DataRate	CameraRate	NumFrames	NumMarkers	Units	OrigDataRate	OrigDataStartFrame	OrigNumFrames
100.000000	100.000000	4	57	mm	100.000000	322	516
Frame#	Time	RPSI			LPSI			L3			STRN			T10			C7			CLAV			RBAK			LBAK			LSHO			LUPA			LAEL			LAOL			LWTS			LWPS			LFRA			LIFD			LHPS			LHTS			RSHO			RUPA			RAEL			RAOL			RWPS			RFRA			RIFD			RHTS			RHPS			RBHD			LFHD			RFHD			LBHD			LHIP			RHIP			RASI			LASI			LKNE			LTHI			LANK			LTIP			LTOE			LMT1			LMT5			LHEE			RKNE			RTHI			RANK			RTIP			RTOE			RMT1			RMT5			RHEE			RWTS			*53			*54			*55			*56			
		X1	Y1	Z1	X2	Y2	Z2	X3	Y3	Z3	X4	Y4	Z4	X5	Y5	Z5	X6	Y6	Z6	X7	Y7	Z7	X8	Y8	Z8	X9	Y9	Z9	X10	Y10	Z10	X11	Y11	Z11	X12	Y12	Z12	X13	Y13	Z13	X14	Y14	Z14	X15	Y15	Z15	X16	Y16	Z16	X17	Y17	Z17	X18	Y18	Z18	X19	Y19	Z19	X20	Y20	Z20	X21	Y21	Z21	X22	Y22	Z22	X23	Y23	Z23	X24	Y24	Z24	X25	Y25	Z25	X26	Y26	Z26	X27	Y27	Z27	X28	Y28	Z28	X29	Y29	Z29	X30	Y30	Z30	X31	Y31	Z31	X32	Y32	Z32	X33	Y33	Z33	X34	Y34	Z34	X35	Y35	Z35	X36	Y36	Z36	X37	Y37	Z37	X38	Y38	Z38	X39	Y39	Z39	X40	Y40	Z40	X41	Y41	Z41	X42	Y42	Z42	X43	Y43	Z43	X44	Y44	Z44	X45	Y45	Z45	X46	Y46	Z46	X47	Y47	Z47	X48	Y48	Z48	X49	Y49	Z49	X50	Y50	Z50	X51	Y51	Z51	X52	Y52	Z52	X53	Y53	Z53	X54	Y54	Z54	X55	Y55	Z55	X56	Y56	Z56	X57	Y57	Z57	

323	3.22	-179.5866241455078	937.6342163085938	196.7511596679688	-62.56012725830078	950.2843017578125	142.0713958740234	-116.5384750366211	1010.796508789062	163.1169128417969	-26.51396751403809	1185.213500976562	386.1271362304688	-98.61521911621094	1130.117065429688	150.6298522949219	-61.24116134643555	1373.222534179688	198.6454620361328	-32.93466949462891	1312.4560546875	348.5549621582031	-137.4088897705078	1236.338012695312	162.6898651123047	34.58432388305664	1336.318359375	161.3732299804688	105.8927536010742	1354.351196289062	232.5476226806641	180.3327484130859	1241.374389648438	207.2525024414062	248.1821441650391	1054.326538085938	255.6504058837891	182.6021270751953	1013.743957519531	220.8334808349609	291.9898681640625	871.9428100585938	436.0615234375	332.3807067871094	848.2901611328125	385.0081176757812	284.0625610351562	963.0509643554688	296.7589111328125	332.7153015136719	726.7955322265625	502.008544921875	342.676513671875	784.6051025390625	409.7906494140625	329.6411437988281	807.3784790039062	468.6189575195312	-207.5379333496094	1360.45849609375	286.4821472167969	-274.5859985351562	1304.549194335938	277.7987976074219	-335.2459106445312	1054.381103515625	213.2107696533203	-246.1060791015625	1042.79443359375	183.7454833984375	-395.08740234375	807.6268920898438	234.8500671386719	-357.2677307128906	985.765869140625	221.2263946533203	-368.2061767578125	635.6605224609375	247.2472229003906	-362.6926879882812	701.4669189453125	281.1160583496094	-403.3858642578125	722.9756469726562	228.1720581054688	-128.7932739257812	1580.41796875	307.5237426757812	28.80254745483398	1552.767822265625	439.1590881347656	-70.43226623535156	1550.239868164062	455.88720703125	6.06190299987793	1586.440063476562	257.1476440429688	72.44267272949219	897.787841796875	169.4315338134766	-235.6196899414062	884.0542602539062	320.6171264648438	-149.9349822998047	918.3499145507812	390.569580078125	73.42886352539062	917.7725219726562	305.4118957519531	47.02938842773438	444.6639404296875	156.6233825683594	67.13278961181641	580.8858642578125	175.7534027099609	-64.11509704589844	49.39854431152344	0.7952467799186707	4.46168851852417	236.8746795654297	74.39503479003906	15.75820350646973	37.65128707885742	199.7769775390625	-60.73312759399414	26.96892166137695	170.3368377685547	21.62309646606445	37.93991851806641	90.62145233154297	-138.1646423339844	46.00837707519531	16.72765922546387	-101.5012969970703	446.6962890625	468.7406311035156	-183.6558227539062	693.1893920898438	428.3321838378906	4.194219589233398	50.48445129394531	553.7793579101562	-68.08865356445312	345.009033203125	513.1282958984375	75.26944732666016	121.9497375488281	722.43896484375	111.4395294189453	100.1159515380859	667.9038696289062	-1.307218909263611	67.32072448730469	654.885498046875	42.53725814819336	44.24121856689453	496.1485900878906	-331.9085083007812	805.208984375	278.2924499511719	nan	nan	nan	nan	nan	nan	nan	nan	nan	nan	nan	nan	
324	3.23	-175.5721740722656	935.4029541015625	204.4400177001953	-58.52724075317383	948.4326782226562	149.6772918701172	-112.5817489624023	1008.84716796875	170.9962921142578	-23.08280181884766	1183.06494140625	393.5274353027344	-94.66529846191406	1128.048583984375	158.1926879882812	-57.56716156005859	1371.29248046875	206.2335357666016	-29.61854553222656	1310.478393554688	356.2503662109375	-133.4605712890625	1234.35302734375	170.0061950683594	38.38561248779297	1334.426513671875	169.1207733154297	109.552848815918	1352.33251953125	240.5120849609375	183.7901153564453	1239.098876953125	215.6994323730469	251.0708465576172	1052.011108398438	264.6620788574219	185.5901641845703	1011.402648925781	229.6413116455078	293.6936645507812	871.4837646484375	446.9376525878906	334.1710205078125	846.9568481445312	396.3429565429688	286.5797424316406	960.989501953125	306.5254516601562	333.1526489257812	727.01025390625	514.9961547851562	343.9432373046875	783.5457153320312	422.094482421875	330.7676086425781	807.1280517578125	480.4612731933594	-204.1769409179688	1358.295043945312	293.7126159667969	-271.0713195800781	1302.2080078125	284.7056884765625	-330.5730895996094	1051.89892578125	219.3140869140625	-241.326904296875	1040.75146484375	190.1882019042969	-389.9404907226562	804.9341430664062	239.5264282226562	-352.4162902832031	983.2383422851562	226.9932556152344	-362.1459045410156	632.9424438476562	250.2677917480469	-357.0734558105469	698.5751342773438	284.7768249511719	-397.7772521972656	720.2386474609375	232.0032043457031	-125.5546112060547	1578.515258789062	314.8770446777344	31.59304618835449	1550.941650390625	447.0711669921875	-67.66318511962891	1548.358642578125	463.4446411132812	9.465081214904785	1584.645874023438	264.983642578125	76.56732177734375	896.24560546875	176.670166015625	-231.0918121337891	881.4315185546875	328.1593322753906	-145.5116729736328	916.0318603515625	398.2523803710938	77.81600952148438	915.9110107421875	312.8167114257812	49.7126350402832	443.6179809570312	160.4139862060547	70.06085968017578	579.857177734375	180.3910980224609	-63.85536956787109	50.27263641357422	1.060802459716797	5.75171947479248	236.8930358886719	76.38127136230469	15.74564361572266	37.57687759399414	199.8194732666016	-60.70593643188477	27.03191757202148	170.3758392333984	21.74328994750977	38.08824920654297	90.86943054199219	-137.9929809570312	47.33518218994141	16.82479286193848	-97.2406005859375	444.5389099121094	476.1968078613281	-179.2447052001953	690.4329223632812	435.627197265625	8.5399169921875	50.31747817993164	567.8365478515625	-64.18643951416016	344.1680297851562	521.7620239257812	79.07769012451172	124.8948287963867	735.633544921875	115.3259353637695	102.3802108764648	681.3359985351562	2.595676898956299	69.18408966064453	668.7501220703125	46.98807525634766	43.07548141479492	510.3215026855469	-326.7733154296875	802.3799438476562	283.0342407226562	nan	nan	nan	nan	nan	nan	nan	nan	nan	nan	nan	nan	
325	3.24	-171.5879821777344	933.2033081054688	212.2483367919922	-54.55994033813477	946.6243286132812	157.4183197021484	-108.6578369140625	1006.927490234375	178.9756011962891	-19.72360420227051	1180.988403320312	401.1228637695312	-90.77704620361328	1125.999877929688	165.9275817871094	-53.99425888061523	1369.415649414062	213.9617919921875	-26.38974571228027	1308.550537109375	364.1117553710938	-129.5965728759766	1232.39208984375	177.4856719970703	42.09229278564453	1332.583740234375	177.0119323730469	113.1089172363281	1350.336059570312	248.6219635009766	187.1212921142578	1236.833984375	224.2545776367188	253.7718353271484	1049.655151367188	273.6803588867188	188.4095153808594	1009.08740234375	238.3221740722656	295.00390625	870.80126953125	457.6048278808594	335.6309204101562	845.4915161132812	407.5003662109375	288.8735961914062	958.878173828125	316.2526550292969	333.0835876464844	726.9013671875	527.6253662109375	344.8605651855469	782.3004760742188	434.1458129882812	331.4688110351562	806.6396484375	492.0768432617188	-200.9109649658203	1356.174682617188	301.096435546875	-267.6548156738281	1299.883666992188	291.7674560546875	-325.9846801757812	1049.36669921875	225.8056640625	-236.6450653076172	1038.65380859375	196.9615631103516	-384.7557067871094	802.191162109375	244.8324737548828	-347.6113586425781	980.6604614257812	233.2182922363281	-355.9112854003906	630.2220458984375	254.0110015869141	-351.2589416503906	695.6950073242188	289.0384826660156	-392.0880126953125	717.450927734375	236.5365447998047	-122.4070358276367	1576.696533203125	322.3551635742188	34.36474227905273	1549.18017578125	455.0769348144531	-64.92894744873047	1546.554809570312	471.1227722167969	12.79690456390381	1582.909057617188	272.9231872558594	80.59612274169922	894.69384765625	184.0090484619141	-226.6053619384766	878.9512939453125	335.8538513183594	-141.0941619873047	913.7554931640625	406.0631713867188	82.21225738525391	914.0369873046875	320.2960205078125	52.50148391723633	442.5879516601562	164.4050750732422	73.05945587158203	578.849609375	185.1758575439453	-63.50568771362305	51.30332183837891	1.348877310752869	7.091737747192383	236.9733734130859	78.51801300048828	15.75455284118652	37.49398422241211	199.8642578125	-60.65319061279297	27.10577011108398	170.4323425292969	21.91106986999512	38.28490829467773	91.15592956542969	-137.7520904541016	48.86967468261719	16.93017959594727	-93.03009796142578	442.81591796875	484.4962768554688	-174.6398620605469	688.1970825195312	443.5885314941406	12.09001541137695	49.7435417175293	579.4432373046875	-60.39261245727539	343.15771484375	530.5772094726562	82.27399444580078	125.9197769165039	746.8731079101562	118.5954208374023	103.0613479614258	692.6986083984375	5.821574687957764	69.7977294921875	680.2638549804688	50.70097732543945	41.88846588134766	522.0784912109375	-321.5255432128906	799.56494140625	288.3371276855469	nan	nan	nan	nan	nan	nan	nan	nan	nan	nan	nan	nan	
326	3.25	-167.6229095458984	931.1079711914062	220.1910705566406	-50.65459442138672	944.9061279296875	165.3206481933594	-104.7532730102539	1005.066955566406	187.0509338378906	-16.4437313079834	1179.022094726562	408.9243774414062	-86.93389129638672	1124.010986328125	173.8349151611328	-50.51841354370117	1367.619140625	221.8348999023438	-23.24441528320312	1306.704956054688	372.1450500488281	-125.8073196411133	1230.484008789062	185.1299438476562	45.71208190917969	1330.823974609375	185.0592651367188	116.5627365112305	1348.400146484375	256.88916015625	190.3347625732422	1234.627807617188	232.916259765625	256.2890930175781	1047.298461914062	282.6865234375	191.0462493896484	1006.856567382812	246.8842926025391	295.9207458496094	869.9120483398438	468.041259765625	336.7655029296875	843.9195556640625	418.4523620605469	290.9458618164062	956.75244140625	325.9187927246094	332.5498962402344	726.5051879882812	539.8642578125	345.4476623535156	780.89794921875	445.89404296875	331.7627563476562	805.929931640625	503.4275512695312	-197.7397003173828	1354.1259765625	308.6278991699219	-264.3257446289062	1297.608276367188	298.9846496582031	-321.476318359375	1046.818725585938	232.6877136230469	-232.0401763916016	1036.528442382812	204.0735931396484	-379.5478515625	799.4380493164062	250.7835083007812	-342.8558349609375	978.0670776367188	239.9079742431641	-349.5350036621094	627.5283813476562	258.4921875	-345.2569885253906	692.8252563476562	293.8672180175781	-386.3553771972656	714.6484985351562	241.7807159423828	-119.3428268432617	1574.990600585938	329.96240234375	37.1153450012207	1547.5068359375	463.1768188476562	-62.23710632324219	1544.855834960938	478.9242858886719	16.06041526794434	1581.256591796875	280.9717712402344	84.52129364013672	893.1439208984375	191.4996948242188	-222.1787109375	876.6932373046875	343.7332458496094	-136.6863098144531	911.5835571289062	414.0146179199219	86.61054229736328	912.1658325195312	327.8819274902344	55.37705993652344	441.5843505859375	168.6574554443359	76.12582397460938	577.8363037109375	190.2106018066406	-63.07362747192383	52.52786636352539	1.666615843772888	8.490898132324219	237.1425476074219	80.82029724121094	15.79287528991699	37.40338516235352	199.9165649414062	-60.56968307495117	27.19104766845703	170.5111999511719	22.12206077575684	38.53171920776367	91.47260284423828	-137.4337005615234	50.63714981079102	17.05950164794922	-88.87058258056641	441.4742431640625	493.5694580078125	-169.8761138916016	686.5387573242188	452.1975402832031	14.89346313476562	48.73326873779297	588.6605834960938	-56.66098022460938	341.9543151855469	539.5247192382812	84.87930297851562	124.9666213989258	756.2420654296875	121.2772827148438	102.0380172729492	702.11328125	8.37333869934082	69.11211395263672	689.5054321289062	53.7292594909668	40.63977432250977	531.4915771484375	-316.2000732421875	796.7969970703125	294.2149353027344	nan	nan	nan	nan	nan	nan	nan	nan	nan	nan	nan	nan	
